<?xml version="1.0" standalone="no"?>
<!-- <!DOCTYPE svg PUBLIC "-//W3C//DTD SVG 20010904//EN"
 "http://www.w3.org/TR/2001/REC-SVG-20010904/DTD/svg10.dtd"> -->
<svg version="1.0" xmlns="http://www.w3.org/2000/svg"
 width="512.000000pt" height="512.000000pt" viewBox="0 0 512.000000 512.000000"
 preserveAspectRatio="xMidYMid meet">

<g transform="translate(0.000000,512.000000) scale(0.100000,-0.100000)"
fill="#000000" stroke="none">
<path d="M4552 4759 c-72 -35 -124 -94 -153 -169 -15 -40 -19 -76 -19 -185 l0
-135 233 1 232 0 -51 20 c-67 26 -132 84 -168 149 -52 95 -45 237 16 322 l19
28 -24 0 c-13 0 -52 -14 -85 -31z"/>
<path d="M502 4149 c-34 -10 -72 -58 -72 -92 0 -31 29 -76 60 -92 26 -14 102
-15 591 -13 l561 3 29 33 c53 59 29 140 -49 162 -48 13 -1074 12 -1120 -1z"/>
<path d="M502 3189 c-70 -21 -91 -114 -37 -168 l25 -26 1416 -3 c1556 -2 1456
-6 1489 58 20 38 19 58 -5 97 -13 21 -31 35 -57 42 -49 14 -2783 13 -2831 0z"/>
<path d="M468 2631 c-27 -24 -33 -36 -33 -71 0 -35 6 -47 33 -71 l32 -29 1420
0 1420 0 32 29 c27 24 33 36 33 71 0 35 -6 47 -33 71 l-32 29 -1420 0 -1420 0
-32 -29z"/>
<path d="M495 2121 c-87 -36 -79 -165 12 -190 57 -16 2786 -14 2833 2 78 27
91 127 21 174 l-34 23 -1406 -1 c-773 0 -1415 -4 -1426 -8z"/>
<path d="M502 1589 c-70 -21 -91 -114 -37 -168 l25 -26 1416 -3 c1556 -2 1456
-6 1489 58 20 38 19 58 -5 97 -13 21 -31 35 -57 42 -49 14 -2783 13 -2831 0z"/>
<path d="M468 1031 c-27 -24 -33 -36 -33 -71 0 -35 6 -47 33 -71 l32 -29 676
0 676 0 29 29 c41 41 41 101 0 142 l-29 29 -676 0 -676 0 -32 -29z"/>
</g>
</svg>
